<svg height='100px' width='100px'  fill="#000000" xmlns="http://www.w3.org/2000/svg" xmlns:xlink="http://www.w3.org/1999/xlink" version="1.1" x="0px" y="0px" viewBox="0 0 90 90" style="enable-background:new 0 0 90 90;" xml:space="preserve"><g><path d="M71.9838867,61.5544434H39.4624023v-2.6362305L22.3452148,40.9138184V23.9963379h31.4433594v6.1083984h-7.8378906   v6.3544922h3.9570313l3.5126953,6.0839844h4.2421875V53.420166h2V42.5432129h4.2421875l3.5126953-6.0839844h3.9570313v-6.3544922   h-7.8378906v-6.1083984h12.2626953v-7.9238281H22.3452148V7.9855957H10.137207v74.0288086h29.3251953v-4.7026367h21.7207031   v4.7026367h11.8007813v-4.7733154c3.8731689-0.4938354,6.8789063-3.8029785,6.8789063-7.8077393   C79.862793,65.0891113,76.3286133,61.5544434,71.9838867,61.5544434z M69.3745117,32.1047363v2.3544922h-3.1113281   l-3.5126953,6.0839844H54.574707l-3.5126953-6.0839844h-3.1113281v-2.3544922H69.3745117z M55.7885742,30.1047363v-6.1083984   h5.7480469v6.1083984H55.7885742z M22.3452148,18.0725098h51.4541016v3.9238281H22.3452148V18.0725098z M37.4624023,80.0144043   H12.137207V9.9855957h8.2080078v31.7270508L37.4624023,59.717041V80.0144043z M70.9838867,80.0144043h-7.8007813v-2.7026367   h7.8007813V80.0144043z M71.9838867,75.3117676H39.4624023V63.5544434h32.5214844   c3.2412109,0,5.8789063,2.637207,5.8789063,5.8789063C77.862793,72.6745605,75.2250977,75.3117676,71.9838867,75.3117676z"></path><path d="M71.7036133,65.3366699c-2.2587891,0-4.0966797,1.8378906-4.0966797,4.0966797s1.8378906,4.0961914,4.0966797,4.0961914   s4.0957031-1.8374023,4.0957031-4.0961914S73.9624023,65.3366699,71.7036133,65.3366699z M71.7036133,71.529541   c-1.15625,0-2.0966797-0.9404297-2.0966797-2.0961914c0-1.15625,0.9404297-2.0966797,2.0966797-2.0966797   c1.1552734,0,2.0957031,0.9404297,2.0957031,2.0966797C73.7993164,70.5891113,72.8588867,71.529541,71.7036133,71.529541z"></path></g></svg>