<svg height='100px' width='100px'  fill="#000000" xmlns="http://www.w3.org/2000/svg" data-name="Layer 1" viewBox="0 0 100 100" x="0px" y="0px"><rect x="15.5" y="35.71143" width="13" height="2"></rect><path d="M95.5,28.71143H94.11816l.27637-.55273-1.78906-.89453-.72363,1.44727H90.11816l.27637-.55273-1.78906-.89453-.72363,1.44727H86.11816l.27637-.55273-1.78906-.89453-.72363,1.44727H82.11816l.27637-.55273-1.78906-.89453-.72363,1.44727H77.5v-5h-5v-3h-15v-4h-47a6.00656,6.00656,0,0,0-6,6v14a6.00656,6.00656,0,0,0,6,6H23.62842l3.72461,27H24.5a3.00328,3.00328,0,0,0-3,3v8a3.00328,3.00328,0,0,0,3,3h18a3.00328,3.00328,0,0,0,3-3v-8a3.00328,3.00328,0,0,0-3-3h-2v-17h5.21973l-1.2002-6,.80011-4H57.5v-4h15v-3h5v-5h1.38184l-.27637.55273,1.78906.89453.72363-1.44727h1.76367l-.27637.55273,1.78906.89453.72363-1.44727h1.76367l-.27637.55273,1.78906.89453.72363-1.44727h1.76367l-.27637.55273,1.78906.89453.72363-1.44727H95.5Zm-53,43a1.00068,1.00068,0,0,1,1,1v8a1.00068,1.00068,0,0,1-1,1h-18a1.00068,1.00068,0,0,1-1-1v-8a1.00068,1.00068,0,0,1,1-1Zm-4-2H29.37109l-3.72363-27H38.5Zm4.78027-19H40.5v-8h2.78027l-.7998,4Zm-32.78027-10a4.004,4.004,0,0,1-4-4v-14a4.004,4.004,0,0,1,4-4h38v22Zm45,0h-5v-22h5Zm15-4h-13v-14h13Zm5-3h-3v-8h3Z"></path></svg>