<svg height='100px' width='100px'  fill="#000000" xmlns="http://www.w3.org/2000/svg" viewBox="0 0 100 100" x="0px" y="0px"><title>corona </title><g data-name="Business, office, Building"><path d="M68.08,35.39H65.35a3.89,3.89,0,0,0,.19-1.14V30.64a4.2,4.2,0,0,0-4.18-4.18H57.81l-2.21-12c-.59-3.22-2.94-5.35-5.35-5.35s-4.76,2.13-5.35,5.35l-2.21,12H39.14A4.2,4.2,0,0,0,35,30.64v3.61a3.89,3.89,0,0,0,.19,1.14H32.42a5.94,5.94,0,0,0-5.92,5.92V87.08A5.93,5.93,0,0,0,32.42,93H68.08A5.93,5.93,0,0,0,74,87.08V41.31A5.94,5.94,0,0,0,68.08,35.39ZM47.85,15c.33-1.79,1.5-2.89,2.4-2.89s2.07,1.1,2.4,2.89l2.08,11.32h-9ZM38,30.64a1.2,1.2,0,0,1,1.18-1.18H61.36a1.2,1.2,0,0,1,1.18,1.18v3.61a1.18,1.18,0,0,1-1,1.14H39a1.18,1.18,0,0,1-1-1.14ZM71,87.08A2.92,2.92,0,0,1,68.08,90H32.42a2.92,2.92,0,0,1-2.92-2.92V41.31a2.92,2.92,0,0,1,2.92-2.92h6.41c.11,0,.21,0,.31,0H61.36c.1,0,.2,0,.31,0h6.41A2.92,2.92,0,0,1,71,41.31Z"></path><path d="M59.24,45.61h-18a6,6,0,0,0-5.92,5.92V75.85a5.94,5.94,0,0,0,5.92,5.92h18a5.94,5.94,0,0,0,5.92-5.92V51.53A6,6,0,0,0,59.24,45.61Zm2.92,30.24a2.92,2.92,0,0,1-2.92,2.92h-18a2.92,2.92,0,0,1-2.92-2.92V51.53a2.92,2.92,0,0,1,2.92-2.92h18a2.92,2.92,0,0,1,2.92,2.92Z"></path></g></svg>