<svg height='100px' width='100px'  fill="#000000" xmlns="http://www.w3.org/2000/svg" data-name="Layer 2" viewBox="0 0 100 100" x="0px" y="0px"><title>Tools</title><path d="M58.13,13.75H40.22a1,1,0,0,0-1,.82,9.06,9.06,0,0,1-1.62,4,9,9,0,0,1-1.63-4,1,1,0,0,0-1-.82H30.62a4.31,4.31,0,0,0-4.31,4.31V29.44a4.31,4.31,0,0,0,4.31,4.31H35a1,1,0,0,0,1-.82,9,9,0,0,1,1.63-4,9.06,9.06,0,0,1,1.62,4,1,1,0,0,0,1,.82h4v49a3.53,3.53,0,0,0,3.53,3.53h2.83a3.53,3.53,0,0,0,3.53-3.53v-49h4a1,1,0,0,0,1-1V23.84a1,1,0,0,1,.37-.8,1.09,1.09,0,0,1,.87-.24A13.49,13.49,0,0,1,71.3,33a1,1,0,0,0,1,.77h0a1,1,0,0,0,1-.76,15.32,15.32,0,0,0,.45-3.68A15.58,15.58,0,0,0,58.13,13.75Zm-6,69a1.53,1.53,0,0,1-1.53,1.53H47.76a1.53,1.53,0,0,1-1.53-1.53v-49h5.89Zm8.57-61.89a3.07,3.07,0,0,0-3.56,3v7.91H41c-.39-1.61-1.44-4.89-3.4-4.89s-3,3.28-3.41,4.89H30.62a2.32,2.32,0,0,1-2.31-2.31V18.06a2.32,2.32,0,0,1,2.31-2.31h3.59c.39,1.61,1.44,4.89,3.41,4.89s3-3.28,3.4-4.89H58.13A13.59,13.59,0,0,1,71.67,28.5,15.49,15.49,0,0,0,60.69,20.83Z"></path></svg>