<svg height='100px' width='100px'  fill="#000000" xmlns="http://www.w3.org/2000/svg" data-name="Layer 2" viewBox="0 0 100 100" x="0px" y="0px"><title>Tools</title><path d="M60.63,18H39.38a1,1,0,0,0-1,1,5.83,5.83,0,0,0,5.83,5.83h2.12V70.5a1.07,1.07,0,0,0,0,.25L49,81.25a1,1,0,0,0,1.94,0l2.67-10.5a1.07,1.07,0,0,0,0-.25V24.83h2.12A5.84,5.84,0,0,0,61.63,19,1,1,0,0,0,60.63,18Zm-9,52.37L50,77l-1.67-6.58V24.83h3.34Zm4.12-47.54H44.21A3.83,3.83,0,0,1,40.51,20h19A3.83,3.83,0,0,1,55.79,22.83Z"></path></svg>