<svg height='100px' width='100px'  fill="#000000" xmlns="http://www.w3.org/2000/svg" xmlns:xlink="http://www.w3.org/1999/xlink" version="1.1" x="0px" y="0px" viewBox="0 0 95 95" enable-background="new 0 0 95 95" xml:space="preserve"><g><path d="M92.7,0.8H2.1C1.5,1,1,1.5,0.8,2.2v90.6C1,93.5,1.5,94,2.2,94.2h90.4c0.8-0.3,1.4-0.8,1.6-1.6V2.2C94,1.5,93.5,1,92.7,0.8z    M17.3,66c-0.1,0.8-0.1,1.7-0.2,2.5c-0.2,1.5-0.3,2.9-0.4,4.4c0,0.5-0.1,0.9-0.1,1.4c0,0.7-0.1,1.5-0.1,2.2   c-0.1,1.8-0.2,3.6-0.3,5.4C16.1,83,16,84.2,16,85.2c0,1.2-0.1,2.3-0.1,3.5c0,0.5-0.1,1-0.1,1.5H4.6V4.5c0.7,0,1.3,0,2-0.3h6.8   c0.4,0,0.5,0.1,0.5,0.5c0,1,0.2,2.1,0.3,3.1c0.1,0.8,0.1,1.5,0.2,2.2c0.2,1.6,0.3,3.1,0.4,4.7c0.1,0.6,0.1,1.2,0.1,1.8   C15,18.4,15,20.2,15,22c0,1-0.2,1.9-0.2,2.9c0,0.4,0.2,0.6,0.6,0.6c0.4,0,0.6-0.2,0.6-0.6c0.1-1.9,0.2-3.9,0.2-5.8   c0-1.5-0.1-3-0.2-4.5c-0.1-1.2-0.2-2.5-0.3-3.7c-0.1-1.1-0.3-2.2-0.4-3.3c-0.1-1-0.2-2.1-0.3-3.2h11.3c0.1,1.3,0.3,2.6,0.4,3.9   s0.3,2.5,0.3,3.8c0.1,2.2,0.1,4.5,0.1,6.7c0,1.3-0.2,2.7-0.3,4c-0.2,1.9-0.5,3.8-1,5.7c-0.5,2-1.3,3.9-2.2,5.8   c-1,1.9-1.7,3.9-2.2,6c-0.6,2.4-1.1,4.7-1.6,7.1c-0.3,1.3-0.5,2.7-0.7,4.1c-0.1,1.2-0.3,2.3-0.5,3.5c-0.1,0.9-0.2,1.7-0.3,2.6   c-0.2,0.9-0.3,1.9-0.4,2.8c-0.1,0.7-0.1,1.4-0.2,2.1C17.5,63.8,17.4,64.8,17.3,66z M41.3,65.2c-0.2,1.4-0.3,2.8-0.4,4.2   c0,0.5-0.1,0.9-0.1,1.4c-0.1,1.2-0.1,2.3-0.2,3.5c-0.1,1.7-0.2,3.3-0.3,5c-0.1,1.2-0.2,2.5-0.2,3.7c-0.1,1.7-0.1,3.5-0.2,5.3   c0,0.7-0.1,1.3-0.1,2c-3.2,0-6.4,0-9.6-0.2V90c0-3.3-0.1-6.7-0.1-10c0-1.7,0.1-3.5,0.1-5.2c0-1,0.1-2,0.1-3   c0.1-1.3,0.1-2.7,0.2-4.1c0.1-1.5,0.2-2.9,0.3-4.3c0.1-1.6,0.3-3.3,0.5-4.9c0.2-1.8,0.5-3.6,1-5.3c0.1-0.3-0.2-0.7-0.5-0.8   c-0.3-0.1-0.6,0-0.7,0.4c-0.2,0.9-0.4,1.9-0.6,2.8c-0.2,1.3-0.3,2.5-0.5,3.7c-0.1,0.8-0.1,1.5-0.2,2.2c-0.2,1.4-0.3,2.9-0.4,4.3   c0,0.6-0.1,1.1-0.1,1.7c0,1.1-0.1,2.1-0.1,3.2c0,1.2-0.1,2.4-0.1,3.6c0,0.9-0.1,1.9-0.1,2.8c-0.1,3.5-0.1,6.9-0.1,10.4   c0,0.9,0.1,1.8,0.1,2.7H17.8c0-0.4,0.1-0.7,0.1-1.1c0-0.1,0-0.1,0-0.2c0-1.3,0.1-2.6,0.1-3.9c0.1-1.4,0.1-2.9,0.2-4.3   c0.1-1.1,0.1-2.1,0.2-3.2c0.1-1.5,0.2-2.9,0.3-4.4c0.1-1.1,0.2-2.3,0.3-3.5c0.2-1.5,0.4-3.1,0.5-4.7c0.1-1.1,0.2-2.1,0.3-3.2   c0.1-1.2,0.3-2.4,0.4-3.6c0.2-1.1,0.3-2.1,0.4-3.2c0.1-0.9,0.3-1.9,0.4-2.8c0.2-0.9,0.3-1.9,0.5-2.9c0.2-1.4,0.5-2.8,0.8-4.2   c0.6-2.2,1.1-4.4,1.8-6.6c0.4-1.2,0.9-2.4,1.5-3.6c1.1-2.4,1.9-4.9,2.4-7.5c0.2-1.2,0.4-2.5,0.6-3.7c0.1-0.6,0.2-1.3,0.2-1.9   c0.1-2.9,0.2-5.9,0.2-8.8c0-1.5-0.3-3-0.1-4.6c-0.1-0.9-0.2-1.9-0.3-2.8c-0.1-0.3-0.1-0.6-0.2-1h21.3c0.9,0,0.9,0,1,0.9   c0.1,1,0.2,2,0.3,3c0.1,1.1,0.2,2.2,0.2,3.3c0.1,1.6,0.1,3.2,0.1,4.8c-0.1,1.3-0.1,2.7-0.3,4c-0.4,3.2-0.9,6.3-2,9.3   c-0.5,1.1-1,2.3-1.5,3.4C46.6,35,45.9,37,45.4,39c-0.6,2.2-1.1,4.4-1.6,6.7c-0.4,1.5-0.6,3.1-0.8,4.7s-0.5,3.3-0.7,4.9   c-0.2,1.2-0.3,2.4-0.4,3.6c-0.1,1.4-0.3,2.7-0.4,4C41.4,63.8,41.4,64.5,41.3,65.2z M69.1,74.7c-0.2,1-0.3,2.1-0.4,3.1   c-0.4,2.7-0.2,5.4-0.2,8.1c0,1.4,0.2,2.7,0.3,4.1v0.4H47.3v-6.7c0-1,0.1-2.1,0.1-3.2c0.1-1.1,0.1-2.3,0.2-3.4   c0.2-2.2,0.3-4.3,0.9-6.4c0.1-0.4-0.1-0.7-0.4-0.8c-0.4-0.1-0.7,0.1-0.8,0.5c-0.2,1.3-0.4,2.6-0.6,3.9c-0.2,1.2-0.2,2.4-0.3,3.6   c-0.1,1.5-0.2,2.9-0.2,4.4c-0.1,2.6-0.1,5.2-0.1,7.8v0.3c-1.6,0-3.1,0-4.5,0.1c0-0.6,0.1-1.1,0.1-1.7v-0.3c0-1.4,0.1-2.9,0.1-4.3   c0.1-1.4,0.1-2.7,0.2-4.1c0.1-1.1,0.1-2.2,0.2-3.3c0.1-1.5,0.2-3,0.3-4.5c0.1-1.1,0.2-2.3,0.3-3.5c0.2-1.6,0.4-3.2,0.5-4.8   c0.1-0.8,0.1-1.5,0.2-2.3c0.2-1,0.3-2,0.4-3c0.1-0.9,0.2-1.8,0.3-2.7s0.2-1.7,0.3-2.5c0.1-0.9,0.3-1.8,0.4-2.7   c0.2-1.3,0.3-2.6,0.6-3.8c0.5-2.3,0.9-4.6,1.5-6.9c0.5-1.9,1.1-3.9,2-5.7c0.7-1.5,1.4-3.1,2-4.7c0.7-1.9,1.2-3.8,1.4-5.8   c0.1-1.2,0.3-2.5,0.4-3.7c0.1-1,0.2-2,0.2-3c0.1-1.6,0.1-3.2,0.1-4.8c-0.1-1.6-0.2-3.1-0.3-4.7c-0.1-0.9-0.3-1.9-0.4-2.8V4.5h13.9   c0,0.6,0.1,1.2,0.1,1.8c0,1.2,0,2.5,0.1,3.7c0.1,1.3,0.2,2.6,0.3,3.9c0.1,1.7,0.3,3.3,0.5,5c0.2,1.3,0.3,2.7,0.5,4   c0.2,1.5,0.4,2.9,0.7,4.4c0.2,1.5,0.5,3.1,0.8,4.6c0.3,1.6,0.6,3.1,0.9,4.6c0.2,1.1,0.4,2.3,0.6,3.5c0.1,1,0.3,2,0.4,3   c0.1,0.6,0.1,1.3,0.2,1.9c0.2,1.6,0.3,3.1,0.4,4.7V50c0,2.2,0.1,4.4,0,6.6c-0.1,1.5-0.3,3-0.4,4.5c-0.1,1.1-0.2,2.3-0.4,3.4   c-0.2,1.3-0.4,2.6-0.7,3.9C69.9,70.5,69.5,72.5,69.1,74.7z M90.5,90.2h-6.8c0-0.5-0.1-0.9-0.1-1.4c0-0.7-0.1-1.4-0.1-2.1   c-0.1-2.9-0.2-5.7-0.2-8.6c0-1.4,0.1-2.9,0.2-4.3c0.1-1.5,0.3-3,0.5-4.5c0.3-2.3,0.8-4.7,1.5-6.9c0.2-0.5,0.4-1.1,0.6-1.6   c0.2-0.6-0.1-1-0.7-0.9c-0.2,0-0.4,0.3-0.5,0.5c-0.4,1.2-0.8,2.4-1.1,3.6c-0.4,1.7-0.7,3.4-1,5.1c-0.2,1-0.2,2-0.3,3   c-0.1,1.7-0.2,3.4-0.3,5.1c-0.1,2-0.1,3.9-0.1,5.9c0,1.5,0.1,2.9,0.2,4.4c0,0.9,0.1,1.8,0.2,2.7H70.9c-0.1-0.8-0.2-1.7-0.2-2.5   c-0.1-2.5-0.2-5-0.2-7.5c0-1.5,0.1-3.1,0.4-4.6c0.4-2.6,1-5.2,1.5-7.8c0.3-1.3,0.4-2.7,0.6-4c0.2-1.5,0.4-3,0.5-4.6   c0.1-1.5,0.2-2.9,0.2-4.4c0-1.6,0.1-3.1,0-4.6c-0.1-1.6-0.3-3.3-0.4-4.9c-0.1-0.9-0.2-1.9-0.3-2.9c-0.2-1.1-0.3-2.2-0.5-3.3   c-0.2-1.2-0.4-2.5-0.7-3.8c-0.4-1.5-0.7-3.1-1-4.6c-0.3-1.3-0.5-2.6-0.7-3.9c-0.2-1-0.3-2.1-0.5-3.2c-0.2-1-0.3-2-0.4-3   c-0.2-0.9-0.3-1.9-0.4-2.8c-0.1-0.8-0.1-1.5-0.2-2.2c-0.2-1.3-0.3-2.7-0.4-4c0-0.5-0.1-1.1-0.1-1.6c0-1-0.1-2-0.1-3V4.5   c3.4,0,6.8,0,10.4-0.1c0,0.7-0.1,1.3-0.1,2c-0.1,0.1-0.1,0.2-0.1,0.3c0,0.9-0.1,1.8-0.1,2.7C78,12,78,14.5,77.9,17   c0,1.1-0.1,2.1-0.1,3.2c0,1.5,0.1,3.1,0.1,4.6c0.1,1.3,0.1,2.6,0.2,3.9c0.1,1.5,0.2,3,0.4,4.5c0.3,3.6,0.9,7.1,1.8,10.5   c0.1,0.6,0.3,1.2,0.6,1.7c0.2,0.4,0.8,0.5,1.2,0.3c0.5-0.2,0.6-0.6,0.5-1.1c-0.5-2.1-1.1-4.2-1.5-6.3c-0.4-1.6-0.5-3.3-0.7-4.9   c-0.1-1-0.2-2-0.3-3c-0.1-1.7-0.2-3.4-0.3-5.1c0-0.9-0.1-1.7-0.1-2.5c0-1.4-0.1-2.8-0.1-4.2c0-1.8,0.1-3.6,0.1-5.4   c0.1-1.5,0.1-3,0.2-4.5C80,7.4,80.1,6,80.3,4.5h10.2V90.2z"></path><path d="M67.6,47.8c-0.2-1.4-0.3-2.9-0.6-4.4c-0.4-2.4-1-4.9-1.9-7.2c-0.7-1.7-1.5-3.2-2.8-4.4c-0.6-0.6-1.3-1-2.2-1   c-1.3-0.1-2.3,0.5-3.1,1.4c-0.9,0.9-1.5,2.1-2,3.3c-1,2.4-1.7,4.9-2.1,7.5c-0.3,2.2-0.6,4.5-0.8,6.8c-0.2,1.6-0.2,3.2-0.2,4.8v3.8   c0.1,1.8,0.2,3.1,0.4,4.3c0.1,1.4,0.3,2.9,0.5,4.3c0.3,2.2,0.9,4.4,1.6,6.6c0.7,2.1,1.5,4.1,3.2,5.6c1.2,1.1,2.8,1.3,4.2,0.4   c1.2-0.7,1.9-1.8,2.5-3c0.6-1.3,1.2-2.8,1.6-4.2c0.5-1.7,0.9-3.5,1.2-5.3c0.3-1.3,0.4-2.7,0.5-4c0.2-1.4,0.4-2.9,0.4-4.4   c0-2.3,0-4.7-0.1-7C67.8,50.4,67.7,49,67.6,47.8z M65.8,63c-0.2,1.4-0.3,2.9-0.6,4.3c-0.3,1.5-0.6,2.9-1,4.3   c-0.4,1.5-0.9,3-1.7,4.3c-0.4,0.7-0.9,1.3-1.5,1.9s-1.4,0.6-2,0c-0.5-0.5-1-1.1-1.4-1.8c-1.3-2.2-1.9-4.7-2.4-7.2   c-0.3-1.8-0.6-3.5-0.8-5.3c-0.2-1.1-0.3-2.2-0.3-3.3c-0.1-2-0.2-4-0.2-6c0-1.4,0.1-2.8,0.2-4.2c0.2-2.1,0.4-4.1,0.7-6.1   c0.4-2.4,1-4.9,1.9-7.2c0.5-1.2,1-2.4,2-3.3c1-0.9,1.7-0.8,2.5,0s1.4,1.8,1.8,2.8c0.5,1.4,1,2.8,1.3,4.2c0.3,1.3,0.6,2.6,0.8,3.9   c0.2,1.1,0.4,2.1,0.5,3.2c0.1,0.8,0.1,1.5,0.2,2.3c0.1,0.9,0.2,1.9,0.2,2.8v2.8c0,1,0.1,1.9,0.2,2.8C66.1,59.8,66,61.4,65.8,63z"></path><path d="M64.3,52c-0.1-1.5-0.3-2.9-0.6-4.4c-0.3-1.7-0.8-3.5-1.9-4.9c-0.9-1.1-2.2-1.4-3.4-0.3c-0.8,0.8-1.2,1.8-1.6,2.8   c-0.9,2.4-1.2,5-1.4,7.6c-0.1,1.3,0,2.6,0,3.9c0,1.1,0.1,2.1,0.2,3.2l0.6,3.6c0.3,1.7,0.8,3.3,1.8,4.7c0.9,1.2,2.3,1.6,3.5,0.4   c0.8-0.8,1.1-1.7,1.5-2.7c0.9-2.2,1.2-4.6,1.4-7c0.1-1.1,0-2.2,0-3.3C64.4,54.4,64.4,53.2,64.3,52z M63.2,58.9   c-0.3,2.4-0.6,4.7-1.4,6.9c-0.3,0.8-0.7,1.5-1.3,2.1c-0.5,0.4-0.8,0.6-1.3,0c-0.5-0.7-0.9-1.4-1.2-2.2c-0.6-1.7-1-3.4-1.1-5.1   c-0.1-1.3-0.3-2.6-0.3-3.9c-0.1-1.2-0.1-2.4,0-3.6c0.2-2.6,0.5-5.1,1.4-7.5c0.3-0.8,0.7-1.6,1.3-2.2c0.4-0.5,0.9-0.5,1.4,0.1   c0.7,0.8,1.1,1.8,1.4,2.8c0.3,1.1,0.6,2.3,0.8,3.5c0.1,0.5,0.2,1.1,0.2,1.6c0.1,1.4,0.1,2.8,0.2,4.2h-0.1   C63.2,56.5,63.3,57.7,63.2,58.9z"></path></g></svg>